<?xml version="1.0" encoding="UTF-8" standalone="no"?>
<svg
   width="486pt"
   height="188pt"
   viewBox="0 0 486 188"
   version="1.1"
   id="svg93"
   sodipodi:docname="Madanar_Logo_TM.svg"
   inkscape:version="1.3.2 (091e20e, 2023-11-25, custom)"
   xmlns:inkscape="http://www.inkscape.org/namespaces/inkscape"
   xmlns:sodipodi="http://sodipodi.sourceforge.net/DTD/sodipodi-0.dtd"
   xmlns="http://www.w3.org/2000/svg"
   xmlns:svg="http://www.w3.org/2000/svg">
  <defs
     id="defs93">
    <rect
       x="621.47831"
       y="113.80574"
       width="21.57361"
       height="15.437996"
       id="rect93" />
  </defs>
  <sodipodi:namedview
     id="namedview93"
     pagecolor="#505050"
     bordercolor="#ffffff"
     borderopacity="1"
     inkscape:showpageshadow="0"
     inkscape:pageopacity="0"
     inkscape:pagecheckerboard="1"
     inkscape:deskcolor="#505050"
     inkscape:document-units="pt"
     inkscape:zoom="5.0524691"
     inkscape:cx="324"
     inkscape:cy="125.38424"
     inkscape:window-width="3840"
     inkscape:window-height="2081"
     inkscape:window-x="-9"
     inkscape:window-y="-9"
     inkscape:window-maximized="1"
     inkscape:current-layer="svg93" />
  <path
     fill="#ffffff"
     d=" M 0.00 0.00 L 486.00 0.00 L 486.00 188.00 L 0.00 188.00 L 0.00 0.00 Z"
     id="path1" />
  <path
     fill="#895688"
     d=" M 83.87 18.10 C 86.92 20.72 88.30 24.60 89.97 28.14 C 91.72 32.71 94.22 37.27 94.62 42.18 L 93.94 43.93 C 93.26 41.30 92.50 38.69 91.65 36.11 C 89.86 30.95 88.16 25.66 85.13 21.08 C 81.93 20.90 81.37 24.77 79.86 26.85 C 81.10 23.89 82.47 20.99 83.87 18.10 Z"
     id="path2" />
  <path
     fill="#fc759c"
     d=" M 79.86 26.85 C 81.37 24.77 81.93 20.90 85.13 21.08 C 88.16 25.66 89.86 30.95 91.65 36.11 C 89.06 34.12 87.02 31.08 83.81 30.09 C 81.23 29.43 79.85 31.99 78.35 33.54 C 78.23 33.15 78.00 32.39 77.88 32.00 C 78.43 30.25 78.96 28.47 79.86 26.85 Z"
     id="path3" />
  <path
     fill="#365b7e"
     d=" M 57.44 24.40 C 60.58 23.14 64.16 23.09 66.58 25.78 C 66.66 27.61 66.67 29.45 66.62 31.28 C 65.90 31.97 65.17 32.67 64.45 33.36 C 62.75 33.43 61.04 33.49 59.33 33.53 C 58.41 32.49 57.45 31.47 56.68 30.31 C 55.86 28.33 56.80 26.27 57.44 24.40 Z"
     id="path4" />
  <path
     fill="#398de4"
     d=" M 57.43 25.77 C 58.79 23.31 61.89 24.38 64.15 24.21 C 64.74 25.53 65.33 26.84 65.92 28.16 C 64.42 30.09 62.73 32.56 59.87 31.72 C 56.95 31.51 56.67 27.93 57.43 25.77 Z"
     id="path5" />
  <path
     fill="#fc5e8d"
     d=" M 78.35 33.54 C 79.85 31.99 81.23 29.43 83.81 30.09 C 87.02 31.08 89.06 34.12 91.65 36.11 C 92.50 38.69 93.26 41.30 93.94 43.93 C 93.89 44.21 93.79 44.77 93.75 45.05 C 88.95 41.27 82.78 36.61 76.37 38.96 L 76.37 38.35 C 76.48 36.16 77.33 34.10 77.88 32.00 C 78.00 32.39 78.23 33.15 78.35 33.54 Z"
     id="path6" />
  <path
     fill="#82d056"
     d=" M 40.29 35.84 C 45.51 37.66 51.06 39.45 55.26 43.18 L 54.08 42.78 C 50.55 41.66 46.98 40.65 43.50 39.38 C 42.23 42.23 43.58 45.14 44.11 47.98 C 44.06 48.65 43.97 49.99 43.92 50.67 C 41.87 46.05 38.98 41.06 40.29 35.84 Z"
     id="path7" />
  <path
     fill="#fa497d"
     d=" M 76.37 38.96 C 82.78 36.61 88.95 41.27 93.75 45.05 C 93.40 47.26 93.06 49.48 92.63 51.68 C 87.41 48.93 82.23 45.97 76.54 44.30 C 76.51 42.51 76.44 40.74 76.37 38.96 Z"
     id="path8" />
  <path
     fill="#bb5170"
     d=" M 76.37 38.35 L 76.37 38.96 C 76.44 40.74 76.51 42.51 76.54 44.30 C 76.62 47.85 76.12 52.28 79.30 54.75 C 83.60 57.68 90.05 56.23 92.63 51.68 C 93.06 49.48 93.40 47.26 93.75 45.05 C 93.79 44.77 93.89 44.21 93.94 43.93 L 94.62 42.18 C 96.38 47.41 96.41 55.09 90.57 57.75 C 86.12 59.26 79.96 59.20 77.05 54.87 C 73.73 49.94 74.89 43.70 76.37 38.35 Z"
     id="path9" />
  <path
     fill="#54b226"
     d=" M 44.11 47.98 C 43.58 45.14 42.23 42.23 43.50 39.38 C 46.98 40.65 50.55 41.66 54.08 42.78 C 55.50 43.95 56.84 45.22 58.17 46.50 C 53.96 48.51 49.24 50.35 47.03 54.81 C 45.07 53.04 44.55 50.46 44.11 47.98 Z"
     id="path10" />
  <path
     fill="#2c7813"
     d=" M 54.08 42.78 L 55.26 43.18 C 60.66 45.85 65.69 49.65 69.16 54.65 C 66.17 55.77 63.01 56.57 60.26 58.23 C 57.30 60.30 55.35 63.42 53.17 66.22 C 49.04 61.78 46.54 56.18 43.92 50.80 L 43.92 50.67 C 43.97 49.99 44.06 48.65 44.11 47.98 C 44.55 50.46 45.07 53.04 47.03 54.81 C 49.24 50.35 53.96 48.51 58.17 46.50 C 56.84 45.22 55.50 43.95 54.08 42.78 Z"
     id="path11" />
  <path
     fill="#f7356e"
     d=" M 76.54 44.30 C 82.23 45.97 87.41 48.93 92.63 51.68 C 90.05 56.23 83.60 57.68 79.30 54.75 C 76.12 52.28 76.62 47.85 76.54 44.30 Z"
     id="path12" />
  <path
     fill="#d56cd6"
     d=" M 24.40 49.57 C 27.25 48.74 30.19 49.54 32.95 50.29 C 30.19 54.13 26.61 57.65 21.87 58.77 C 20.49 57.99 20.15 56.22 19.30 54.98 C 20.63 52.90 21.94 50.48 24.40 49.57 Z"
     id="path13" />
  <path
     fill="#c15abf"
     d=" M 21.87 58.77 C 26.61 57.65 30.19 54.13 32.95 50.29 C 33.16 50.67 33.58 51.41 33.79 51.79 C 33.97 55.04 34.28 59.21 30.90 61.03 C 27.88 63.73 23.70 63.77 20.36 61.65 C 19.02 59.71 19.57 57.20 19.30 54.98 C 20.15 56.22 20.49 57.99 21.87 58.77 Z"
     id="path14" />
  <path
     fill="#895688"
     d=" M 33.79 51.79 C 35.16 53.60 36.74 55.58 36.49 58.01 C 36.73 64.06 28.81 68.52 23.76 65.17 C 22.36 64.29 21.43 62.87 20.36 61.65 C 23.70 63.77 27.88 63.73 30.90 61.03 C 34.28 59.21 33.97 55.04 33.79 51.79 Z"
     id="path15" />
  <path
     fill="#0e4b07"
     d=" M 69.16 54.65 L 69.45 54.55 C 70.04 56.70 70.52 58.87 70.51 61.13 C 69.17 63.53 67.72 66.00 65.21 67.36 C 63.84 68.08 62.44 68.74 61.10 69.51 C 58.11 69.46 55.43 68.08 53.17 66.22 C 55.35 63.42 57.30 60.30 60.26 58.23 C 63.01 56.57 66.17 55.77 69.16 54.65 Z"
     id="path16" />
  <path
     fill="#7bd1eb"
     d=" M 77.87 68.14 C 85.24 63.22 94.53 62.75 103.06 63.89 C 108.46 65.07 113.93 67.04 118.18 70.68 C 120.83 73.22 123.15 76.08 125.08 79.21 C 118.98 76.09 114.02 70.86 107.27 68.99 C 98.92 66.63 89.44 66.08 81.50 70.08 C 80.40 69.50 79.31 68.91 78.21 68.33 L 77.87 68.14 Z"
     id="path17" />
  <path
     fill="#365b7e"
     d=" M 81.50 70.08 C 89.44 66.08 98.92 66.63 107.27 68.99 C 114.02 70.86 118.98 76.09 125.08 79.21 C 123.15 76.08 120.83 73.22 118.18 70.68 C 121.62 73.30 124.35 76.69 126.83 80.20 C 127.59 81.44 128.20 82.75 128.86 84.04 C 127.97 82.98 126.92 82.08 126.05 81.01 C 125.66 80.81 124.89 80.42 124.50 80.23 L 124.60 79.74 C 119.42 76.92 115.14 72.50 109.41 70.64 C 101.43 68.09 92.37 67.28 84.47 70.52 C 77.46 73.39 73.37 80.81 72.55 88.07 C 71.32 99.98 76.84 111.18 77.46 122.95 C 77.62 128.33 75.45 133.77 71.44 137.40 C 64.58 143.83 55.16 146.40 46.18 148.24 C 44.28 148.03 42.38 147.74 40.49 147.47 C 51.99 145.58 64.92 143.10 72.63 133.50 C 78.25 126.25 75.87 116.64 73.93 108.52 C 71.94 99.53 69.31 89.82 72.81 80.84 C 74.37 76.37 77.62 72.72 81.50 70.08 Z"
     id="path18" />
  <path
     fill="#5fbedf"
     d=" M 68.16 82.94 C 69.60 77.04 72.98 71.57 78.21 68.33 C 79.31 68.91 80.40 69.50 81.50 70.08 C 77.62 72.72 74.37 76.37 72.81 80.84 C 69.31 89.82 71.94 99.53 73.93 108.52 C 72.96 109.16 71.98 109.80 71.04 110.48 L 70.31 111.00 C 68.46 101.82 65.87 92.29 68.16 82.94 Z"
     id="path19" />
  <path
     fill="#f5c4ac"
     d=" M 28.32 73.65 C 35.45 71.87 42.88 70.81 50.21 71.86 C 51.77 72.05 53.08 72.96 54.08 74.13 C 51.20 73.16 48.19 72.61 45.15 72.46 C 39.52 72.06 33.99 73.55 28.47 74.42 L 28.32 73.65 Z"
     id="path20" />
  <path
     fill="#dd7130"
     d=" M 28.47 74.42 C 33.99 73.55 39.52 72.06 45.15 72.46 L 46.61 73.25 C 45.65 73.38 43.75 73.63 42.79 73.75 C 40.33 74.10 37.87 74.44 35.41 74.80 C 31.03 75.40 26.71 76.58 22.25 76.56 C 24.21 75.54 26.29 74.77 28.47 74.42 Z"
     id="path21" />
  <path
     fill="#c02e27"
     d=" M 45.15 72.46 C 48.19 72.61 51.20 73.16 54.08 74.13 C 55.22 75.16 56.25 76.31 57.10 77.60 C 57.59 82.13 57.71 87.70 53.89 90.91 C 49.56 93.73 44.08 92.17 39.54 90.69 L 38.10 89.12 C 38.71 89.20 39.94 89.35 40.56 89.43 C 42.07 89.61 43.58 89.82 45.08 90.04 C 47.89 90.50 51.41 90.95 53.49 88.52 C 56.06 84.90 56.38 79.52 53.28 76.09 C 51.84 75.44 50.37 74.87 48.91 74.26 C 48.14 73.93 47.37 73.59 46.61 73.25 L 45.15 72.46 Z"
     id="path22" />
  <path
     fill="#fe5504"
     d=" M 35.41 74.80 C 37.87 74.44 40.33 74.10 42.79 73.75 C 39.31 77.75 35.39 82.47 36.35 88.16 C 34.46 87.14 32.53 86.19 30.59 85.28 C 30.55 83.96 30.50 82.66 30.46 81.35 C 32.56 79.54 34.46 77.45 35.41 74.80 Z"
     id="path23" />
  <path
     fill="#ff3e06"
     d=" M 42.79 73.75 C 43.75 73.63 45.65 73.38 46.61 73.25 C 47.37 73.59 48.14 73.93 48.91 74.26 C 43.90 77.70 41.77 83.73 40.56 89.43 C 39.94 89.35 38.71 89.20 38.10 89.12 C 37.66 88.88 36.79 88.40 36.35 88.16 C 35.39 82.47 39.31 77.75 42.79 73.75 Z"
     id="path24" />
  <path
     fill="#fb6d06"
     d=" M 22.25 76.56 C 26.71 76.58 31.03 75.40 35.41 74.80 C 34.46 77.45 32.56 79.54 30.46 81.35 C 30.50 82.66 30.55 83.96 30.59 85.28 C 29.29 84.67 27.99 84.05 26.71 83.40 C 24.98 82.13 23.23 80.89 21.47 79.66 C 21.45 78.81 21.44 77.96 21.43 77.11 C 20.83 77.04 19.63 76.91 19.03 76.84 C 20.10 76.73 21.18 76.61 22.25 76.56 Z"
     id="path25" />
  <path
     fill="#ff2708"
     d=" M 40.56 89.43 C 41.77 83.73 43.90 77.70 48.91 74.26 C 50.37 74.87 51.84 75.44 53.28 76.09 C 49.44 80.01 47.43 85.18 45.08 90.04 C 43.58 89.82 42.07 89.61 40.56 89.43 Z"
     id="path26" />
  <path
     fill="#cf9259"
     d=" M 18.48 80.09 C 18.33 78.96 17.99 77.68 19.03 76.84 C 19.63 76.91 20.83 77.04 21.43 77.11 C 21.44 77.96 21.45 78.81 21.47 79.66 C 23.23 80.89 24.98 82.13 26.71 83.40 L 27.30 85.41 C 24.16 83.98 21.38 81.93 18.48 80.09 Z"
     id="path27" />
  <path
     fill="#fd0f0a"
     d=" M 45.08 90.04 C 47.43 85.18 49.44 80.01 53.28 76.09 C 56.38 79.52 56.06 84.90 53.49 88.52 C 51.41 90.95 47.89 90.50 45.08 90.04 Z"
     id="path28" />
  <path
     fill="#160201"
     d=" M 107.03 80.82 C 107.57 79.48 107.74 77.84 108.93 76.86 C 110.31 76.70 111.69 76.61 113.08 76.58 C 114.38 78.35 115.59 80.22 115.75 82.47 L 114.82 82.44 C 114.47 82.78 113.79 83.46 113.45 83.81 L 113.53 84.69 C 110.56 85.03 108.30 83.38 107.03 80.82 Z"
     id="path29" />
  <path
     fill="#cd9a97"
     d=" M 57.10 77.60 C 59.20 79.92 58.45 83.31 57.85 86.07 C 57.12 89.43 54.59 92.48 51.15 93.23 C 45.84 94.02 40.39 92.54 35.84 89.81 C 36.76 90.03 38.61 90.47 39.54 90.69 C 44.08 92.17 49.56 93.73 53.89 90.91 C 57.71 87.70 57.59 82.13 57.10 77.60 Z"
     id="path30" />
  <path
     fill="#c6714e"
     d=" M 26.71 83.40 C 27.99 84.05 29.29 84.67 30.59 85.28 C 32.53 86.19 34.46 87.14 36.35 88.16 C 36.79 88.40 37.66 88.88 38.10 89.12 L 39.54 90.69 C 38.61 90.47 36.76 90.03 35.84 89.81 C 32.81 88.76 29.91 87.24 27.30 85.41 L 26.71 83.40 Z"
     id="path31" />
  <path
     fill="#3e70a5"
     d=" M 250.20 86.15 C 254.12 85.63 258.12 85.73 262.07 86.00 C 263.92 86.18 264.42 88.41 264.30 89.94 C 264.34 106.96 264.25 123.97 264.35 140.99 C 264.40 143.24 264.17 145.49 263.75 147.71 C 261.38 147.40 257.84 148.52 256.91 145.48 C 258.64 145.55 260.38 145.62 262.13 145.70 C 262.50 141.62 262.65 137.53 262.28 133.45 C 262.60 121.64 262.25 109.83 262.41 98.02 C 262.48 94.40 262.16 90.78 261.66 87.20 C 257.95 86.41 254.09 86.16 250.51 87.60 C 250.56 93.74 250.56 99.88 250.45 106.03 L 249.82 105.73 C 250.04 99.21 249.33 92.62 250.20 86.15 Z"
     id="path32" />
  <path
     fill="#0291fe"
     d=" M 250.51 87.60 C 254.09 86.16 257.95 86.41 261.66 87.20 C 262.16 90.78 262.48 94.40 262.41 98.02 C 262.25 109.83 262.60 121.64 262.28 133.45 C 260.96 129.06 260.93 124.47 260.79 119.94 C 258.28 122.19 257.00 125.64 254.31 127.62 C 253.07 126.90 251.93 126.02 250.78 125.17 C 250.90 118.60 248.60 111.92 243.55 107.53 C 240.12 107.77 235.95 106.64 233.26 109.40 C 230.36 112.13 229.56 116.26 228.73 119.99 C 227.53 120.55 226.35 121.12 225.16 121.68 C 224.50 121.31 223.84 120.95 223.18 120.58 C 221.79 120.92 220.18 122.53 218.90 121.15 C 217.85 119.67 217.72 117.79 217.37 116.07 C 219.21 109.12 225.23 103.93 231.95 101.90 C 236.70 101.46 242.20 100.65 246.28 103.73 C 247.42 104.47 248.58 105.18 249.82 105.73 L 250.45 106.03 C 250.56 99.88 250.56 93.74 250.51 87.60 Z"
     id="path33" />
  <path
     fill="#1f80a1"
     d=" M 93.75 91.77 C 98.02 91.32 102.33 91.68 106.61 91.58 C 107.01 91.90 107.82 92.55 108.23 92.87 C 110.67 100.23 112.67 107.73 115.22 115.06 C 116.93 120.11 117.80 125.44 120.00 130.32 C 121.76 128.63 121.85 126.04 122.60 123.85 C 126.14 113.18 129.23 102.35 132.76 91.67 C 137.66 91.53 142.57 91.42 147.47 91.68 C 147.51 92.13 147.58 93.03 147.61 93.47 C 147.58 95.34 147.43 97.21 147.37 99.08 C 146.54 96.91 146.25 94.00 144.11 92.74 C 140.84 92.20 137.42 92.19 134.17 92.91 C 131.58 96.38 131.28 101.08 129.76 105.10 C 126.93 112.93 124.73 120.96 122.26 128.90 C 121.60 130.52 120.54 131.92 119.32 133.15 C 119.08 132.85 118.59 132.25 118.34 131.95 C 116.48 126.29 115.45 120.39 113.29 114.83 C 110.78 108.41 109.45 101.60 106.89 95.21 C 105.30 90.83 99.46 92.66 95.90 92.71 C 91.62 95.83 92.93 101.57 91.75 106.06 C 90.50 110.60 90.52 115.39 89.13 119.90 C 88.33 122.85 88.45 125.96 87.62 128.91 C 86.04 134.39 85.92 140.13 85.17 145.76 C 87.97 145.75 90.79 145.48 93.41 144.42 C 93.31 144.80 93.11 145.57 93.01 145.95 C 90.08 146.33 87.14 146.55 84.20 146.87 L 84.10 146.89 C 84.19 144.94 84.31 142.98 84.60 141.05 C 87.41 124.97 90.17 108.87 92.96 92.79 C 93.16 92.54 93.56 92.03 93.75 91.77 Z"
     id="path34" />
  <path
     fill="#0193fe"
     d=" M 91.75 106.06 C 92.93 101.57 91.62 95.83 95.90 92.71 C 99.46 92.66 105.30 90.83 106.89 95.21 C 109.45 101.60 110.78 108.41 113.29 114.83 C 115.45 120.39 116.48 126.29 118.34 131.95 C 116.83 130.11 115.37 128.23 113.93 126.34 C 111.30 127.16 108.75 128.25 106.33 129.57 C 103.59 122.30 102.63 114.22 98.33 107.62 C 98.01 107.17 97.39 106.27 97.07 105.83 C 96.12 111.38 95.73 117.00 94.98 122.57 C 94.29 121.21 93.58 119.86 92.87 118.52 C 91.62 118.97 90.37 119.42 89.13 119.90 C 90.52 115.39 90.50 110.60 91.75 106.06 Z"
     id="path35" />
  <path
     fill="#0191fe"
     d=" M 134.17 92.91 C 137.42 92.19 140.84 92.20 144.11 92.74 C 146.25 94.00 146.54 96.91 147.37 99.08 C 147.72 103.98 148.65 108.82 149.42 113.67 C 149.42 116.61 149.23 119.55 149.24 122.49 C 148.38 121.00 147.46 119.55 146.56 118.09 C 144.11 118.08 141.66 118.08 139.21 118.08 C 139.04 121.50 138.76 124.92 138.54 128.34 C 136.78 121.78 137.61 114.75 135.09 108.38 L 134.88 107.70 C 134.33 108.43 133.79 109.17 133.28 109.92 C 129.60 115.21 129.50 121.98 127.30 127.90 C 126.72 127.77 125.56 127.51 124.98 127.38 C 124.07 127.88 123.17 128.39 122.26 128.90 C 124.73 120.96 126.93 112.93 129.76 105.10 C 131.28 101.08 131.58 96.38 134.17 92.91 Z"
     id="path36" />
  <path
     fill="#266086"
     d=" M 147.37 99.08 C 147.43 97.21 147.58 95.34 147.61 93.47 C 149.90 103.54 150.64 113.90 152.35 124.08 C 153.33 131.88 154.78 139.61 155.50 147.44 C 150.39 147.44 145.17 148.04 140.11 147.23 L 139.11 146.44 C 144.17 146.23 149.23 146.24 154.29 146.00 C 152.67 135.23 151.36 124.40 149.42 113.67 C 148.65 108.82 147.72 103.98 147.37 99.08 Z"
     id="path37" />
  <path
     fill="#cfa3a1"
     d=" M 20.73 97.64 C 22.07 97.05 23.59 96.14 25.05 96.97 C 27.63 97.65 28.01 101.03 27.13 103.14 C 25.49 105.69 21.19 105.37 19.80 102.67 C 21.78 103.37 24.41 104.85 26.19 102.87 C 26.80 101.38 27.14 98.42 24.97 98.18 C 23.63 97.53 22.22 97.34 20.73 97.64 Z"
     id="path38" />
  <path
     fill="#d81a0c"
     d=" M 19.76 97.70 L 20.73 97.64 C 22.22 97.34 23.63 97.53 24.97 98.18 C 24.86 99.29 24.73 100.40 24.58 101.51 C 22.98 101.88 21.39 102.26 19.80 102.67 L 19.80 102.68 C 19.75 101.02 19.77 99.36 19.76 97.70 Z"
     id="path39" />
  <path
     fill="#962e29"
     d=" M 24.97 98.18 C 27.14 98.42 26.80 101.38 26.19 102.87 C 24.41 104.85 21.78 103.37 19.80 102.67 C 21.39 102.26 22.98 101.88 24.58 101.51 C 24.73 100.40 24.86 99.29 24.97 98.18 Z"
     id="path40" />
  <path
     fill="#1f80a1"
     d=" M 38.98 108.25 C 42.88 103.50 48.36 98.33 55.01 99.19 C 58.15 99.54 60.57 102.10 62.00 104.75 C 62.15 107.05 62.47 109.44 61.81 111.69 C 60.94 114.37 58.45 115.98 56.14 117.31 C 57.89 115.06 59.72 112.72 60.54 109.95 C 60.09 106.16 57.47 102.46 53.93 100.96 C 50.36 100.28 47.15 102.58 44.35 104.48 C 42.56 105.73 40.77 107.00 38.98 108.25 Z"
     id="path41" />
  <path
     fill="#029ac8"
     d=" M 44.35 104.48 C 47.15 102.58 50.36 100.28 53.93 100.96 C 57.47 102.46 60.09 106.16 60.54 109.95 C 59.72 112.72 57.89 115.06 56.14 117.31 C 55.68 117.54 54.77 117.99 54.31 118.22 C 53.85 118.15 52.91 118.03 52.45 117.97 C 52.76 117.04 53.08 116.12 53.39 115.20 C 50.88 111.24 48.89 106.51 44.35 104.48 Z"
     id="path42" />
  <path
     fill="#3c9bd9"
     d=" M 275.79 109.47 C 280.58 101.71 291.44 99.54 299.58 102.69 C 303.21 104.24 305.88 107.28 307.90 110.58 C 309.56 107.76 311.30 104.99 313.10 102.25 C 314.70 102.21 316.31 102.18 317.92 102.14 L 317.91 102.47 C 317.55 117.02 318.07 131.57 317.91 146.12 C 313.58 146.17 309.24 146.22 304.94 146.73 C 304.75 145.75 304.59 144.76 304.46 143.78 C 304.56 143.34 304.78 142.47 304.88 142.03 C 306.40 143.35 307.64 145.54 309.93 145.42 C 312.23 145.52 314.53 145.24 316.82 145.04 C 317.62 135.70 317.01 126.33 317.26 116.98 C 317.41 112.63 317.22 108.28 316.66 103.97 C 312.76 104.02 311.59 108.07 309.45 110.57 C 308.71 112.10 306.34 112.00 305.54 110.58 C 302.67 106.87 299.06 103.19 294.08 102.87 C 287.82 101.74 282.16 105.05 277.51 108.82 L 275.79 109.47 Z"
     id="path43" />
  <path
     fill="#266086"
     d=" M 453.74 103.78 C 458.28 100.74 464.08 101.23 469.13 102.48 C 471.84 102.97 473.87 104.93 475.70 106.85 C 473.57 110.78 471.15 114.55 469.06 118.51 C 468.33 118.46 467.61 118.40 466.89 118.35 C 466.48 117.09 466.07 115.83 465.66 114.57 C 469.79 115.70 471.58 110.82 472.67 107.71 C 473.67 104.73 470.29 103.26 467.98 102.72 C 463.25 101.81 458.30 102.25 453.74 103.78 Z"
     id="path44" />
  <path
     fill="#0393fd"
     d=" M 172.60 103.45 C 181.01 99.18 193.36 101.44 197.31 110.77 C 197.55 110.59 198.02 110.23 198.26 110.04 C 200.99 108.59 202.08 104.93 205.10 104.10 C 205.41 104.38 206.03 104.93 206.34 105.21 C 205.84 111.49 206.18 117.80 206.08 124.09 C 205.58 122.11 204.98 120.16 204.41 118.20 C 202.06 118.16 199.72 118.11 197.38 118.06 C 197.48 121.58 197.21 125.12 195.87 128.41 C 195.66 122.83 195.58 116.97 193.09 111.84 C 192.22 109.97 190.58 108.49 188.60 107.90 C 186.03 107.46 183.27 106.93 180.74 107.82 C 178.18 109.19 176.45 111.69 174.96 114.10 C 172.50 118.50 173.68 123.80 173.00 128.60 C 172.17 125.09 171.43 121.56 170.94 117.98 C 168.74 118.32 164.99 117.23 164.39 120.28 C 162.88 125.29 163.30 130.61 163.07 135.78 C 160.53 131.31 161.21 125.98 161.20 121.06 C 161.31 113.65 166.05 106.74 172.60 103.45 Z"
     id="path45" />
  <path
     fill="#0391fd"
     d=" M 349.37 102.54 C 353.16 101.64 357.17 100.99 361.05 101.74 C 366.63 103.22 371.48 107.32 373.36 112.86 L 373.23 113.85 C 372.57 117.21 373.60 120.62 373.20 124.00 C 372.85 127.08 372.08 130.09 371.31 133.09 C 371.23 130.99 371.06 128.90 370.89 126.82 C 368.65 126.52 366.41 126.21 364.19 125.82 C 363.35 126.21 362.51 126.59 361.68 126.98 C 361.88 120.31 362.26 111.97 356.01 107.72 C 353.65 107.49 351.17 107.09 348.87 107.84 C 345.59 109.29 343.74 112.60 342.47 115.78 C 341.58 114.44 340.66 113.13 339.78 111.79 C 342.07 107.95 344.84 103.87 349.37 102.54 Z"
     id="path46" />
  <path
     fill="#0395fc"
     d=" M 380.47 117.06 C 382.30 109.68 388.42 103.34 395.95 101.83 C 400.46 101.34 405.41 100.96 409.40 103.57 C 412.51 105.07 414.52 107.96 416.32 110.79 C 418.10 108.04 419.84 105.25 421.54 102.44 C 423.21 102.39 424.88 102.34 426.56 102.29 L 426.54 102.34 C 426.36 102.75 426.00 103.58 425.82 104.00 C 425.56 117.91 425.90 131.85 425.75 145.77 C 421.95 145.80 418.14 145.86 414.35 145.62 L 412.17 145.44 L 413.97 145.09 C 417.68 145.29 421.40 145.44 425.12 145.18 C 425.55 136.16 425.67 126.87 422.52 118.27 C 420.73 118.25 418.94 118.22 417.17 118.21 C 416.51 121.37 415.83 124.55 414.58 127.54 C 414.47 121.29 413.97 114.29 409.57 109.43 C 407.09 106.51 402.73 107.01 399.38 107.66 C 395.90 109.19 393.95 112.99 392.93 116.48 C 392.19 120.99 392.45 125.60 392.42 130.16 C 390.90 128.45 389.35 126.57 387.16 125.71 C 384.74 125.26 382.38 126.43 380.06 126.92 C 380.17 123.63 379.98 120.32 380.47 117.06 Z"
     id="path47" />
  <path
     fill="#3497cc"
     d=" M 436.81 103.94 C 436.73 101.16 440.84 102.21 442.53 102.63 C 444.81 105.18 446.14 108.51 447.60 111.59 C 447.43 111.95 447.07 112.67 446.90 113.02 C 444.08 109.77 443.19 104.42 438.64 103.09 C 438.28 116.46 438.21 129.88 438.66 143.24 C 439.96 147.23 445.66 144.84 448.83 145.01 C 449.12 141.04 449.22 137.05 449.07 133.07 C 449.10 127.96 448.98 122.80 449.90 117.76 C 450.14 127.24 450.33 136.72 450.05 146.20 C 445.71 146.26 441.37 146.28 437.05 146.61 L 436.84 146.63 C 436.65 132.40 436.70 118.16 436.81 103.94 Z"
     id="path48" />
  <path
     fill="#2684c0"
     d=" M 198.26 110.04 C 199.67 107.41 201.22 104.86 202.80 102.33 C 204.70 102.35 206.60 102.37 208.50 102.42 L 208.46 103.27 C 207.59 117.49 209.04 131.78 207.70 145.96 C 206.71 142.71 206.86 139.29 206.86 135.94 C 207.03 127.63 206.87 119.31 207.00 110.99 C 206.93 109.06 207.13 107.02 206.34 105.21 C 206.03 104.93 205.41 104.38 205.10 104.10 C 202.08 104.93 200.99 108.59 198.26 110.04 Z"
     id="path49" />
  <path
     fill="#02a0fe"
     d=" M 277.51 108.82 C 282.16 105.05 287.82 101.74 294.08 102.87 C 299.06 103.19 302.67 106.87 305.54 110.58 C 306.34 112.00 308.71 112.10 309.45 110.57 C 311.59 108.07 312.76 104.02 316.66 103.97 C 317.22 108.28 317.41 112.63 317.26 116.98 C 317.01 126.33 317.62 135.70 316.82 145.04 C 314.53 145.24 312.23 145.52 309.93 145.42 C 307.64 145.54 306.40 143.35 304.88 142.03 C 302.48 143.52 300.16 145.20 297.56 146.34 C 290.11 147.02 281.53 145.47 276.87 139.05 C 272.31 133.48 271.87 125.86 272.80 119.01 C 273.34 115.23 275.53 111.99 277.51 108.82 Z"
     id="path50" />
  <path
     fill="#266086"
     d=" M 317.91 102.47 C 319.80 104.93 319.20 108.10 319.27 110.98 C 319.24 121.33 319.25 131.67 319.28 142.01 C 319.32 143.90 318.92 145.75 318.55 147.58 C 314.03 147.25 309.25 148.44 304.94 146.73 C 309.24 146.22 313.58 146.17 317.91 146.12 C 318.07 131.57 317.55 117.02 317.91 102.47 Z"
     id="path51" />
  <path
     fill="#039efd"
     d=" M 328.36 146.52 C 328.42 131.80 328.18 117.08 328.46 102.37 C 330.32 102.39 332.19 102.42 334.06 102.46 C 336.07 105.51 337.81 108.72 339.78 111.79 C 340.66 113.13 341.58 114.44 342.47 115.78 C 339.86 125.59 341.53 135.73 341.05 145.70 C 336.98 145.66 332.91 145.78 328.89 146.45 C 328.76 146.47 328.49 146.50 328.36 146.52 Z"
     id="path52" />
  <path
     fill="#266086"
     d=" M 425.82 104.00 C 426.00 103.58 426.36 102.75 426.54 102.34 C 427.87 104.32 427.56 106.75 427.60 109.00 C 427.47 121.82 427.76 134.65 427.46 147.47 C 423.05 147.63 418.64 147.63 414.24 147.51 L 414.35 145.62 C 418.14 145.86 421.95 145.80 425.75 145.77 C 425.90 131.85 425.56 117.91 425.82 104.00 Z"
     id="path53" />
  <path
     fill="#0397fd"
     d=" M 438.64 103.09 C 443.19 104.42 444.08 109.77 446.90 113.02 C 447.07 112.67 447.43 111.95 447.60 111.59 C 449.18 108.68 450.95 105.68 453.74 103.78 C 458.30 102.25 463.25 101.81 467.98 102.72 C 470.29 103.26 473.67 104.73 472.67 107.71 C 471.58 110.82 469.79 115.70 465.66 114.57 C 464.62 112.88 463.65 111.10 462.18 109.74 C 460.67 108.95 458.86 109.07 457.23 108.67 L 457.41 108.47 C 458.84 108.16 460.31 107.98 461.75 107.65 C 459.74 107.62 457.69 107.21 455.71 107.66 C 452.24 109.81 450.82 114.00 449.90 117.76 C 448.98 122.80 449.10 127.96 449.07 133.07 C 447.73 128.71 442.81 129.88 439.34 129.98 C 439.30 134.41 438.93 138.82 438.66 143.24 C 438.21 129.88 438.28 116.46 438.64 103.09 Z"
     id="path54" />
  <path
     fill="#628891"
     d=" M 208.46 103.27 C 208.97 104.82 209.36 106.41 209.28 108.06 C 209.24 119.36 209.23 130.67 209.28 141.98 C 209.28 143.88 208.96 145.77 208.63 147.64 C 204.29 147.68 199.92 148.08 195.61 147.50 C 195.40 146.99 194.99 145.96 194.79 145.45 C 198.76 145.82 202.75 145.75 206.73 145.58 C 205.95 138.45 206.33 131.25 206.08 124.09 C 206.18 117.80 205.84 111.49 206.34 105.21 C 207.13 107.02 206.93 109.06 207.00 110.99 C 206.87 119.31 207.03 127.63 206.86 135.94 C 206.86 139.29 206.71 142.71 207.70 145.96 C 209.04 131.78 207.59 117.49 208.46 103.27 Z"
     id="path55" />
  <path
     fill="#05aed7"
     d=" M 44.35 104.48 C 48.89 106.51 50.88 111.24 53.39 115.20 C 53.08 116.12 52.76 117.04 52.45 117.97 C 52.91 118.03 53.85 118.15 54.31 118.22 C 51.74 119.40 49.10 120.46 46.35 121.15 C 45.73 121.07 44.51 120.93 43.90 120.86 C 43.51 118.80 43.32 116.63 42.30 114.75 C 41.08 112.71 38.90 111.54 37.05 110.15 C 37.53 109.67 38.50 108.72 38.98 108.25 C 40.77 107.00 42.56 105.73 44.35 104.48 Z"
     id="path56" />
  <path
     fill="#365b7e"
     d=" M 62.00 104.75 C 63.71 107.85 64.35 112.00 61.92 114.91 C 58.20 119.25 52.54 121.35 47.13 122.70 C 41.31 123.86 35.48 125.04 29.58 125.71 L 29.28 124.52 C 35.07 123.97 40.77 122.75 46.35 121.15 C 49.10 120.46 51.74 119.40 54.31 118.22 C 54.77 117.99 55.68 117.54 56.14 117.31 C 58.45 115.98 60.94 114.37 61.81 111.69 C 62.47 109.44 62.15 107.05 62.00 104.75 Z"
     id="path57" />
  <path
     fill="#1d6a99"
     d=" M 97.07 105.83 C 97.39 106.27 98.01 107.17 98.33 107.62 C 98.29 108.14 98.20 109.17 98.16 109.69 C 97.58 115.44 96.91 121.25 97.57 127.03 C 97.32 125.31 97.08 123.60 96.81 121.90 C 96.34 130.43 95.25 138.92 94.30 147.41 C 90.94 147.47 87.41 148.18 84.20 146.87 C 87.14 146.55 90.08 146.33 93.01 145.95 C 93.11 145.57 93.31 144.80 93.41 144.42 C 93.62 137.11 93.83 129.81 94.98 122.57 C 95.73 117.00 96.12 111.38 97.07 105.83 Z"
     id="path58" />
  <path
     fill="#266086"
     d=" M 180.74 107.82 C 183.27 106.93 186.03 107.46 188.60 107.90 C 186.07 108.13 183.52 108.45 181.15 109.38 C 174.83 114.58 174.89 123.22 175.46 130.65 C 175.19 131.06 174.66 131.88 174.39 132.29 C 173.62 126.25 173.38 120.03 174.96 114.10 C 176.45 111.69 178.18 109.19 180.74 107.82 Z"
     id="path59" />
  <path
     fill="#1d6a99"
     d=" M 233.26 109.40 C 235.95 106.64 240.12 107.77 243.55 107.53 C 248.60 111.92 250.90 118.60 250.78 125.17 C 250.76 127.51 250.61 129.85 250.46 132.18 C 250.45 128.63 250.44 125.05 249.72 121.55 C 248.98 116.84 246.88 112.37 243.35 109.11 C 240.08 109.31 236.05 109.04 233.95 112.14 C 229.42 118.78 229.97 127.45 231.64 134.94 C 231.26 134.72 230.51 134.28 230.13 134.06 C 228.46 129.58 228.38 124.70 228.73 119.99 C 229.56 116.26 230.36 112.13 233.26 109.40 Z"
     id="path60" />
  <path
     fill="#3e70a5"
     d=" M 289.54 107.65 C 293.49 107.44 298.12 106.24 301.32 109.33 L 299.78 109.49 C 296.29 109.39 291.89 108.17 289.47 111.50 C 284.52 117.81 284.88 126.61 286.66 134.02 C 286.81 135.08 286.64 136.11 286.15 137.10 C 283.00 131.54 283.41 125.06 283.71 118.92 C 284.27 114.63 286.48 110.67 289.54 107.65 Z"
     id="path61" />
  <path
     fill="#266086"
     d=" M 348.87 107.84 C 351.17 107.09 353.65 107.49 356.01 107.72 L 355.61 109.04 C 352.93 108.80 349.84 108.74 347.78 110.77 C 343.92 114.41 343.09 120.02 342.62 125.05 C 342.49 132.56 342.63 140.07 342.58 147.58 C 338.35 147.41 334.07 147.94 329.88 147.32 L 328.89 146.45 C 332.91 145.78 336.98 145.66 341.05 145.70 C 341.53 135.73 339.86 125.59 342.47 115.78 C 343.74 112.60 345.59 109.29 348.87 107.84 Z"
     id="path62" />
  <path
     fill="#1d6a99"
     d=" M 399.38 107.66 C 402.73 107.01 407.09 106.51 409.57 109.43 C 413.97 114.29 414.47 121.29 414.58 127.54 C 413.96 129.08 413.17 130.56 412.46 132.06 C 413.95 125.60 413.87 118.45 410.66 112.51 C 408.24 108.06 401.44 107.39 398.13 111.21 C 393.59 115.96 394.10 122.96 394.26 129.02 C 394.23 132.69 395.88 136.05 397.57 139.21 C 394.26 137.37 393.44 133.48 392.42 130.16 C 392.45 125.60 392.19 120.99 392.93 116.48 C 393.95 112.99 395.90 109.19 399.38 107.66 Z"
     id="path63" />
  <path
     fill="#266086"
     d=" M 455.71 107.66 C 457.69 107.21 459.74 107.62 461.75 107.65 C 460.31 107.98 458.84 108.16 457.41 108.47 L 457.23 108.67 C 452.79 112.00 451.27 117.69 451.35 123.00 C 450.78 131.18 452.11 139.50 450.55 147.58 C 446.08 147.15 441.21 148.61 437.05 146.61 C 441.37 146.28 445.71 146.26 450.05 146.20 C 450.33 136.72 450.14 127.24 449.90 117.76 C 450.82 114.00 452.24 109.81 455.71 107.66 Z"
     id="path64" />
  <path
     fill="#2f9ddb"
     d=" M 98.33 107.62 C 102.63 114.22 103.59 122.30 106.33 129.57 C 108.11 134.56 108.72 140.04 111.44 144.65 C 115.04 145.95 118.96 145.07 122.68 144.87 C 124.38 139.25 125.70 133.54 127.30 127.90 C 129.50 121.98 129.60 115.21 133.28 109.92 C 130.20 122.00 126.83 134.00 123.70 146.06 C 119.16 146.16 114.62 146.34 110.09 146.66 L 109.56 146.60 C 105.90 134.26 102.09 121.91 98.16 109.69 C 98.20 109.17 98.29 108.14 98.33 107.62 Z"
     id="path65" />
  <path
     fill="#266086"
     d=" M 133.28 109.92 C 133.79 109.17 134.33 108.43 134.88 107.70 L 135.09 108.38 C 134.83 109.50 134.57 110.62 134.32 111.74 C 131.59 123.71 127.86 135.42 125.02 147.35 C 120.04 147.28 115.00 147.74 110.09 146.66 C 114.62 146.34 119.16 146.16 123.70 146.06 C 126.83 134.00 130.20 122.00 133.28 109.92 Z"
     id="path66" />
  <path
     fill="#48a3d8"
     d=" M 181.15 109.38 C 183.52 108.45 186.07 108.13 188.60 107.90 C 190.58 108.49 192.22 109.97 193.09 111.84 C 195.58 116.97 195.66 122.83 195.87 128.41 C 194.52 132.57 193.64 137.31 190.11 140.27 C 186.66 143.58 180.64 143.02 177.54 139.51 C 174.86 136.48 173.72 132.49 173.00 128.60 C 173.68 123.80 172.50 118.50 174.96 114.10 C 173.38 120.03 173.62 126.25 174.39 132.29 C 174.66 131.88 175.19 131.06 175.46 130.65 C 176.75 134.19 177.78 138.57 181.48 140.36 C 184.21 141.24 187.69 141.07 189.67 138.73 C 193.36 134.85 194.25 129.18 194.36 124.04 C 194.09 119.42 193.57 114.17 190.08 110.76 C 187.72 108.39 184.11 109.53 181.15 109.38 Z"
     id="path67" />
  <path
     fill="#42a6da"
     d=" M 356.01 107.72 C 362.26 111.97 361.88 120.31 361.68 126.98 C 361.43 130.55 360.97 134.09 360.41 137.62 C 359.56 142.96 357.23 147.92 356.19 153.22 C 357.48 153.53 358.77 153.84 360.07 154.15 C 359.20 154.86 358.32 155.55 357.44 156.24 C 355.97 155.43 353.33 154.45 354.37 152.28 C 358.55 143.10 360.01 132.98 360.47 122.98 C 360.59 117.90 359.39 112.65 355.61 109.04 L 356.01 107.72 Z"
     id="path68" />
  <path
     fill="#4cbadd"
     d=" M 71.04 110.48 C 71.98 109.80 72.96 109.16 73.93 108.52 C 75.87 116.64 78.25 126.25 72.63 133.50 C 64.92 143.10 51.99 145.58 40.49 147.47 C 38.96 147.27 37.44 147.02 35.92 146.83 C 47.47 143.50 61.15 142.21 69.19 132.15 C 74.32 125.91 71.21 117.66 71.04 110.48 Z"
     id="path69" />
  <path
     fill="#398de4"
     d=" M 135.09 108.38 C 137.61 114.75 136.78 121.78 138.54 128.34 C 138.78 133.71 138.58 139.29 140.56 144.39 C 144.38 146.26 148.84 145.17 152.92 145.09 C 151.55 137.58 151.41 129.84 149.24 122.49 C 149.23 119.55 149.42 116.61 149.42 113.67 C 151.36 124.40 152.67 135.23 154.29 146.00 C 149.23 146.24 144.17 146.23 139.11 146.44 C 138.98 146.44 138.73 146.42 138.61 146.42 C 137.31 134.85 136.29 123.21 134.32 111.74 C 134.57 110.62 134.83 109.50 135.09 108.38 Z"
     id="path70" />
  <path
     fill="#41a2d5"
     d=" M 275.79 109.47 L 277.51 108.82 C 275.53 111.99 273.34 115.23 272.80 119.01 C 271.87 125.86 272.31 133.48 276.87 139.05 C 281.53 145.47 290.11 147.02 297.56 146.34 C 294.38 147.37 291.02 147.30 287.73 147.45 C 288.08 147.71 288.79 148.21 289.15 148.47 C 282.02 147.49 275.74 142.44 272.95 135.85 C 269.90 128.44 270.07 119.76 273.47 112.50 C 274.10 111.43 274.65 110.07 275.79 109.47 Z"
     id="path71" />
  <path
     fill="#ffffff"
     d=" M 398.13 111.21 C 401.44 107.39 408.24 108.06 410.66 112.51 C 413.87 118.45 413.95 125.60 412.46 132.06 C 411.04 135.14 409.74 138.77 406.50 140.37 C 403.56 141.32 400.17 140.91 397.57 139.21 C 395.88 136.05 394.23 132.69 394.26 129.02 C 394.10 122.96 393.59 115.96 398.13 111.21 Z"
     id="path72" />
  <path
     fill="#0bc4e6"
     d=" M 36.97 110.10 L 37.05 110.15 C 38.90 111.54 41.08 112.71 42.30 114.75 C 43.32 116.63 43.51 118.80 43.90 120.86 C 44.51 120.93 45.73 121.07 46.35 121.15 C 40.77 122.75 35.07 123.97 29.28 124.52 C 29.09 123.77 28.71 122.26 28.52 121.50 C 31.39 117.74 33.93 113.74 36.97 110.10 Z"
     id="path73" />
  <path
     fill="#ffffff"
     d=" M 175.46 130.65 C 174.89 123.22 174.83 114.58 181.15 109.38 C 184.11 109.53 187.72 108.39 190.08 110.76 C 193.57 114.17 194.09 119.42 194.36 124.04 C 194.25 129.18 193.36 134.85 189.67 138.73 C 187.69 141.07 184.21 141.24 181.48 140.36 C 177.78 138.57 176.75 134.19 175.46 130.65 Z"
     id="path74" />
  <path
     fill="#ffffff"
     d=" M 233.95 112.14 C 236.05 109.04 240.08 109.31 243.35 109.11 C 246.88 112.37 248.98 116.84 249.72 121.55 C 249.92 127.47 249.73 134.03 245.84 138.87 C 243.50 141.71 239.21 140.99 236.02 140.48 C 233.94 139.23 232.97 136.86 231.64 134.94 C 229.97 127.45 229.42 118.78 233.95 112.14 Z"
     id="path75" />
  <path
     fill="#ffffff"
     d=" M 289.47 111.50 C 291.89 108.17 296.29 109.39 299.78 109.49 C 304.69 114.59 305.26 122.30 304.40 128.99 C 303.60 133.87 301.52 139.86 296.06 141.06 C 291.50 142.09 287.68 138.17 286.66 134.02 C 284.88 126.61 284.52 117.81 289.47 111.50 Z"
     id="path76" />
  <path
     fill="#186a8c"
     d=" M 373.23 113.85 C 375.22 115.64 374.44 118.58 374.60 120.96 C 374.91 134.05 369.32 146.94 360.54 156.52 C 359.43 156.47 358.32 156.44 357.21 156.41 L 357.44 156.24 C 358.32 155.55 359.20 154.86 360.07 154.15 C 365.57 148.28 369.03 140.72 371.31 133.09 C 372.08 130.09 372.85 127.08 373.20 124.00 C 373.60 120.62 372.57 117.21 373.23 113.85 Z"
     id="path77" />
  <path
     fill="#03a6fd"
     d=" M 227.57 146.41 C 217.06 140.65 214.12 126.89 217.37 116.07 C 217.72 117.79 217.85 119.67 218.90 121.15 C 220.18 122.53 221.79 120.92 223.18 120.58 C 223.84 120.95 224.50 121.31 225.16 121.68 C 226.35 121.12 227.53 120.55 228.73 119.99 C 228.38 124.70 228.46 129.58 230.13 134.06 C 230.51 134.28 231.26 134.72 231.64 134.94 C 232.97 136.86 233.94 139.23 236.02 140.48 C 239.21 140.99 243.50 141.71 245.84 138.87 C 249.73 134.03 249.92 127.47 249.72 121.55 C 250.44 125.05 250.45 128.63 250.46 132.18 C 250.61 129.85 250.76 127.51 250.78 125.17 C 251.93 126.02 253.07 126.90 254.31 127.62 C 257.00 125.64 258.28 122.19 260.79 119.94 C 260.93 124.47 260.96 129.06 262.28 133.45 C 262.65 137.53 262.50 141.62 262.13 145.70 C 260.38 145.62 258.64 145.55 256.91 145.48 L 256.76 145.48 C 255.88 143.87 254.97 142.29 254.08 140.69 C 253.74 140.53 253.05 140.19 252.71 140.03 C 252.73 139.00 252.75 137.98 252.77 136.96 C 249.77 140.41 247.29 144.95 242.62 146.33 C 238.20 147.95 233.56 146.51 229.04 146.46 L 227.57 146.41 Z"
     id="path78" />
  <path
     fill="#03a6fd"
     d=" M 89.13 119.90 C 90.37 119.42 91.62 118.97 92.87 118.52 C 93.58 119.86 94.29 121.21 94.98 122.57 C 93.83 129.81 93.62 137.11 93.41 144.42 C 90.79 145.48 87.97 145.75 85.17 145.76 C 85.92 140.13 86.04 134.39 87.62 128.91 C 88.45 125.96 88.33 122.85 89.13 119.90 Z"
     id="path79" />
  <path
     fill="#01a4ff"
     d=" M 139.21 118.08 C 141.66 118.08 144.11 118.08 146.56 118.09 C 147.46 119.55 148.38 121.00 149.24 122.49 C 151.41 129.84 151.55 137.58 152.92 145.09 C 148.84 145.17 144.38 146.26 140.56 144.39 C 138.58 139.29 138.78 133.71 138.54 128.34 C 138.76 124.92 139.04 121.50 139.21 118.08 Z"
     id="path80" />
  <path
     fill="#01a5fe"
     d=" M 164.39 120.28 C 164.99 117.23 168.74 118.32 170.94 117.98 C 171.43 121.56 172.17 125.09 173.00 128.60 C 173.72 132.49 174.86 136.48 177.54 139.51 C 180.64 143.02 186.66 143.58 190.11 140.27 C 193.64 137.31 194.52 132.57 195.87 128.41 C 197.21 125.12 197.48 121.58 197.38 118.06 C 199.72 118.11 202.06 118.16 204.41 118.20 C 204.98 120.16 205.58 122.11 206.08 124.09 C 206.33 131.25 205.95 138.45 206.73 145.58 C 202.75 145.75 198.76 145.82 194.79 145.45 C 194.35 145.41 193.49 145.32 193.05 145.27 C 193.60 144.45 194.70 142.80 195.25 141.98 C 192.31 143.37 189.63 145.34 186.51 146.32 C 183.00 146.78 179.44 146.70 175.94 147.28 C 170.14 146.14 165.09 141.30 163.07 135.78 C 163.30 130.61 162.88 125.29 164.39 120.28 Z"
     id="path81" />
  <path
     fill="#02a8fe"
     d=" M 417.17 118.21 C 418.94 118.22 420.73 118.25 422.52 118.27 C 425.67 126.87 425.55 136.16 425.12 145.18 C 421.40 145.44 417.68 145.29 413.97 145.09 L 413.20 145.05 L 413.36 144.09 C 413.46 143.48 413.65 142.26 413.75 141.66 C 410.71 143.74 407.70 146.13 404.05 146.99 C 401.05 147.47 398.00 147.39 394.98 147.55 L 394.47 147.46 C 385.83 144.83 379.40 136.01 380.06 126.92 C 382.38 126.43 384.74 125.26 387.16 125.71 C 389.35 126.57 390.90 128.45 392.42 130.16 C 393.44 133.48 394.26 137.37 397.57 139.21 C 400.17 140.91 403.56 141.32 406.50 140.37 C 409.74 138.77 411.04 135.14 412.46 132.06 C 413.17 130.56 413.96 129.08 414.58 127.54 C 415.83 124.55 416.51 121.37 417.17 118.21 Z"
     id="path82" />
  <path
     fill="#7bd1eb"
     d=" M 29.11 126.38 C 26.32 126.35 27.22 122.85 28.52 121.50 C 28.71 122.26 29.09 123.77 29.28 124.52 L 29.58 125.71 C 35.48 125.04 41.31 123.86 47.13 122.70 C 41.51 125.21 35.19 125.88 29.11 126.38 Z"
     id="path83" />
  <path
     fill="#02a8fe"
     d=" M 364.19 125.82 C 366.41 126.21 368.65 126.52 370.89 126.82 C 371.06 128.90 371.23 130.99 371.31 133.09 C 369.03 140.72 365.57 148.28 360.07 154.15 C 358.77 153.84 357.48 153.53 356.19 153.22 C 357.23 147.92 359.56 142.96 360.41 137.62 C 360.97 134.09 361.43 130.55 361.68 126.98 C 362.51 126.59 363.35 126.21 364.19 125.82 Z"
     id="path84" />
  <path
     fill="#01a8ff"
     d=" M 106.33 129.57 C 108.75 128.25 111.30 127.16 113.93 126.34 C 115.37 128.23 116.83 130.11 118.34 131.95 C 118.59 132.25 119.08 132.85 119.32 133.15 C 120.54 131.92 121.60 130.52 122.26 128.90 C 123.17 128.39 124.07 127.88 124.98 127.38 C 125.56 127.51 126.72 127.77 127.30 127.90 C 125.70 133.54 124.38 139.25 122.68 144.87 C 118.96 145.07 115.04 145.95 111.44 144.65 C 108.72 140.04 108.11 134.56 106.33 129.57 Z"
     id="path85" />
  <path
     fill="#01a8ff"
     d=" M 439.34 129.98 C 442.81 129.88 447.73 128.71 449.07 133.07 C 449.22 137.05 449.12 141.04 448.83 145.01 C 445.66 144.84 439.96 147.23 438.66 143.24 C 438.93 138.82 439.30 134.41 439.34 129.98 Z"
     id="path86" />
  <path
     fill="#266086"
     d=" M 242.62 146.33 C 247.29 144.95 249.77 140.41 252.77 136.96 C 252.75 137.98 252.73 139.00 252.71 140.03 C 250.49 142.91 248.29 146.17 244.72 147.47 C 239.28 149.50 233.16 148.73 227.86 146.62 L 229.04 146.46 C 233.56 146.51 238.20 147.95 242.62 146.33 Z"
     id="path87" />
  <path
     fill="#186a8c"
     d=" M 297.56 146.34 C 300.16 145.20 302.48 143.52 304.88 142.03 C 304.78 142.47 304.56 143.34 304.46 143.78 C 301.00 148.52 294.54 149.09 289.15 148.47 C 288.79 148.21 288.08 147.71 287.73 147.45 C 291.02 147.30 294.38 147.37 297.56 146.34 Z"
     id="path88" />
  <path
     fill="#266086"
     d=" M 404.05 146.99 C 407.70 146.13 410.71 143.74 413.75 141.66 C 413.65 142.26 413.46 143.48 413.36 144.09 C 411.18 145.75 408.88 147.24 406.36 148.34 C 402.55 148.62 398.72 148.33 394.98 147.55 C 398.00 147.39 401.05 147.47 404.05 146.99 Z"
     id="path89" />
  <path
     fill="#2a779a"
     d=" M 186.51 146.32 C 189.63 145.34 192.31 143.37 195.25 141.98 C 194.70 142.80 193.60 144.45 193.05 145.27 C 188.44 149.16 181.30 149.78 175.94 147.28 C 179.44 146.70 183.00 146.78 186.51 146.32 Z"
     id="path90" />
  <path
     fill="#accad6"
     d=" M 109.56 146.60 L 110.09 146.66 C 115.00 147.74 120.04 147.28 125.02 147.35 C 120.78 149.67 115.47 147.86 110.81 148.33 C 110.49 147.90 109.87 147.03 109.56 146.60 Z"
     id="path91" />
  <path
     fill="#628891"
     d=" M 23.63 148.75 C 27.71 148.05 31.78 147.06 35.92 146.83 C 37.44 147.02 38.96 147.27 40.49 147.47 C 42.38 147.74 44.28 148.03 46.18 148.24 C 38.84 149.60 30.95 150.68 23.63 148.75 Z"
     id="path92" />
  <path
     fill="#b3cedb"
     d=" M 394.47 147.46 L 394.98 147.55 C 398.72 148.33 402.55 148.62 406.36 148.34 C 404.99 149.92 402.81 149.46 400.98 149.51 C 398.66 149.47 396.08 149.42 394.47 147.46 Z"
     id="path93" />
  <text
     xml:space="preserve"
     transform="matrix(0.75,0,0,0.75,5.0470373,8.164325)"
     id="text93"
     style="white-space:pre;shape-inside:url(#rect93);fill:#000000"><tspan
       x="621.47852"
       y="124.72514"
       id="tspan1">™</tspan></text>
</svg>
